#!OML:ASF C:\Vicon Data\Big\jianyuan-13\jianyuan\Session 1\Capture.male.ASF
:FULLY-SPECIFIED
:DEGREES
209
root -5.558871 17.861603 -3.089800 0.298177 7.345896 -2.396073
lowerback -9.224664 -1.128838 0.468061 
upperback 2.282073 -1.702146 1.495399 
thorax 7.625107 -0.859563 1.044750 
lowerneck -1.556808 -2.301982 3.336439 
upperneck 12.016560 -2.248649 -4.884225 
head 4.129258 -0.958992 -2.314219 
rclavicle 0.000000 0.000000 
rhumerus -40.643739 -19.243038 -74.427012 
rradius 32.579064 
rwrist 29.030278 
rhand -17.691171 -17.586594 
rfingers 0.000000 
rthumb 8.568366 -47.392724 
lclavicle 0.000000 0.000000 
lhumerus -15.016567 9.524373 93.611427 
lradius 41.039448 
lwrist -32.776352 
lhand -20.760749 1.450793 
lfingers 0.000000 
lthumb 5.605360 31.356641 
rfemur -79.986942 -8.326942 19.654174 
rtibia 98.477978 
rfoot -8.275010 -3.557943 
rtoes -33.470765 
lfemur 2.734141 -7.605142 -23.015058 
ltibia 8.723803 
lfoot -10.984253 2.170492 
ltoes -19.918503 
210
root -5.546408 17.860337 -3.004254 0.252969 7.446125 -2.353438
lowerback -9.385972 -1.168461 0.464401 
upperback 2.216813 -1.754225 1.487426 
thorax 7.648982 -0.884253 1.027675 
lowerneck -1.576172 -2.279315 3.425259 
upperneck 12.054878 -2.216733 -4.917018 
head 4.147689 -0.939759 -2.341940 
rclavicle 0.000000 0.000000 
rhumerus -40.785924 -19.095130 -74.459173 
rradius 32.619364 
rwrist 28.743592 
rhand -17.672374 -17.821369 
rfingers 0.000000 
rthumb 8.586507 -47.626766 
lclavicle 0.000000 0.000000 
lhumerus -15.270230 9.068085 93.713284 
lradius 41.614550 
lwrist -32.380955 
lhand -20.538245 1.376615 
lfingers 0.000000 
lthumb 5.820192 31.276685 
rfemur -79.704049 -8.120657 19.468955 
rtibia 97.289966 
rfoot -8.405737 -3.590281 
rtoes -32.827067 
lfemur 3.285093 -7.481902 -23.120606 
ltibia 8.371698 
lfoot -10.924946 2.103822 
ltoes -19.583687 
211
root -5.535176 17.858671 -2.921770 0.177754 7.534213 -2.344825
lowerback -9.538082 -1.117856 0.455074 
upperback 2.295793 -1.705391 1.634688 
thorax 7.826007 -0.866718 1.192792 
lowerneck -2.051977 -2.339808 2.869473 
upperneck 12.158651 -2.309098 -4.711730 
head 4.279794 -1.011820 -2.187076 
rclavicle 0.000000 0.000000 
rhumerus -40.646734 -20.256119 -73.534995 
rradius 32.208055 
rwrist 29.949026 
rhand -17.525349 -17.497177 
rfingers 0.000000 
rthumb 8.728370 -47.296738 
lclavicle 0.000000 0.000000 
lhumerus -15.242966 8.443402 94.272857 
lradius 42.111451 
lwrist -31.588675 
lhand -20.499018 1.292850 
lfingers 0.000000 
lthumb 5.858039 31.191873 
rfemur -79.287379 -7.883428 19.357794 
rtibia 96.042595 
rfoot -8.657382 -3.612838 
rtoes -33.081137 
lfemur 3.833993 -7.351947 -23.177997 
ltibia 8.045902 
lfoot -10.805385 1.988022 
ltoes -19.401704 
212
root -5.525991 17.855603 -2.839848 0.109829 7.628166 -2.313352
lowerback -9.648205 -1.145102 0.464723 
upperback 2.243430 -1.741514 1.619047 
thorax 7.833236 -0.882839 1.163344 
lowerneck -2.069196 -2.321064 2.889242 
upperneck 12.207139 -2.288827 -4.649909 
head 4.301877 -0.997329 -2.170103 
rclavicle 0.000000 0.000000 
rhumerus -40.744053 -19.599260 -73.861921 
rradius 32.405763 
rwrist 29.265595 
rhand -17.667351 -17.881350 
rfingers 0.000000 
rthumb 8.591399 -47.686507 
lclavicle 0.000000 0.000000 
lhumerus -15.536492 8.046371 94.333453 
lradius 42.524152 
lwrist -31.457581 
lhand -20.507313 1.273296 
lfingers 0.000000 
lthumb 5.850017 31.172532 
rfemur -78.822208 -7.624043 19.156173 
rtibia 94.790586 
rfoot -8.812521 -3.570505 
rtoes -33.034069 
lfemur 4.332597 -7.231929 -23.263554 
ltibia 7.819364 
lfoot -10.890464 2.003989 
ltoes -20.143196 
213
root -5.518143 17.851010 -2.756707 0.088589 7.772046 -2.240076
lowerback -9.834399 -1.208528 0.399233 
upperback 2.232764 -1.819306 1.614529 
thorax 7.932760 -0.923077 1.179344 
lowerneck -2.146957 -2.296575 2.851787 
upperneck 12.209358 -2.270753 -4.555158 
head 4.319846 -0.988721 -2.131934 
rclavicle 0.000000 0.000000 
rhumerus -40.734724 -20.556774 -73.356053 
rradius 32.065910 
rwrist 30.153628 
rhand -17.636882 -17.621903 
rfingers 0.000000 
rthumb 8.620741 -47.425955 
lclavicle 0.000000 0.000000 
lhumerus -15.766934 7.616507 94.420828 
lradius 42.997684 
lwrist -30.951017 
lhand -20.430157 1.281344 
lfingers 0.000000 
lthumb 5.924530 31.178489 
rfemur -78.335377 -7.418360 18.933124 
rtibia 93.470877 
rfoot -9.165058 -3.625080 
rtoes -32.870238 
lfemur 4.649525 -7.158334 -23.388457 
ltibia 7.831778 
lfoot -10.999428 1.980725 
ltoes -20.859986 
214
root -5.508627 17.846010 -2.669060 0.068083 7.867003 -2.202580
lowerback -9.997806 -1.282995 0.374427 
upperback 2.153556 -1.913545 1.593490 
thorax 7.943927 -0.968717 1.152761 
lowerneck -2.088213 -2.239444 3.161971 
upperneck 12.242121 -2.183423 -4.744100 
head 4.320981 -0.936574 -2.249463 
rclavicle 0.000000 0.000000 
rhumerus -40.828272 -19.969827 -73.692724 
rradius 32.300829 
rwrist 29.321909 
rhand -17.625483 -17.869060 
rfingers 0.000000 
rthumb 8.631754 -47.672592 
lclavicle 0.000000 0.000000 
lhumerus -16.152402 7.447665 94.426803 
lradius 43.395771 
lwrist -30.773840 
lhand -20.385641 1.166086 
lfingers 0.000000 
lthumb 5.967486 31.062084 
rfemur -77.781669 -7.180817 18.796213 
rtibia 92.080297 
rfoot -9.388428 -3.756680 
rtoes -33.484005 
lfemur 4.936145 -7.028759 -23.469464 
ltibia 7.876182 
lfoot -11.137125 1.917891 
ltoes -20.849674 
